<?xml version="1.0" standalone="no"?><!DOCTYPE svg PUBLIC "-//W3C//DTD SVG 1.1//EN" "http://www.w3.org/Graphics/SVG/1.1/DTD/svg11.dtd"><svg class="icon" width="200px" height="200.00px" viewBox="0 0 1024 1024" version="1.1" xmlns="http://www.w3.org/2000/svg"><path d="M183.625 686.5l52-52c-13.5-8.6-26.1-17.2-37.7-25.6-50.8-36.7-90.1-73.8-112.7-96.9 22.7-23.1 61.9-60.2 112.7-96.9 23.3-16.8 50.6-34.7 81-51.2-28 43.9-43 94.8-43 148.1 0 35.7 6.7 70.3 19.6 102.5l57.4-57.4c-3.3-14.5-5-29.6-5-45.1 0-112.5 91.5-204 204-204 15.5 0 30.6 1.7 45.1 5l72.2-72.2C589.725 231 550.425 226 512.025 226c-64.7 0-131.6 14.1-199 41.8-53 21.8-106.4 52.1-158.7 90.1C65.725 422.1 10.925 486 8.625 488.6c-11.5 13.5-11.5 33.3 0 46.7 2.3 2.7 57.1 66.5 145.7 130.8 9.7 7.1 19.5 13.9 29.3 20.4zM1015.425 488.6c-2.3-2.7-57.1-66.5-145.7-130.8-30.9-22.4-62.2-42.2-93.6-59.1L860.025 215c14.1-14.1 14.1-36.9 0-50.9-14.1-14.1-36.9-14.1-50.9 0L707.025 266.1c-0.3-0.1-0.6-0.2-0.8-0.3l-78.3 78.3c0.2 0.2 0.5 0.3 0.7 0.5l-284 283.9c-0.2-0.2-0.3-0.5-0.5-0.7l-97 97c0.3 0.1 0.5 0.3 0.8 0.4L164.025 809c-14.1 14.1-14.1 36.9 0 50.9 7 7 16.2 10.5 25.5 10.5S207.925 867 215.025 860l102-102.1c66 26.6 131.6 40.1 195 40.1 64.7 0 131.6-14.1 199-41.8 53-21.8 106.4-52.1 158.7-90.1 88.6-64.3 143.4-128.1 145.7-130.8 11.5-13.4 11.5-33.2 0-46.7zM512.025 716c-43.3 0-83.4-13.5-116.5-36.6l283.9-283.9c23.1 33 36.6 73.2 36.6 116.5 0 112.5-91.5 204-204 204z m314-107.1c-23.3 16.8-50.6 34.7-81 51.2 28-43.9 43-94.8 43-148.1s-15-104.3-43-148.1c30.4 16.6 57.7 34.4 81 51.2 50.8 36.7 90 73.8 112.7 96.9-22.6 23.1-61.9 60.2-112.7 96.9z" fill="#567AFD" /></svg>